<svg version="1.0" xmlns="http://www.w3.org/2000/svg"
 width="1218.000000pt" height="1280.000000pt" viewBox="0 0 1218.000000 1280.000000"
 preserveAspectRatio="xMidYMid meet">
    <g transform="translate(0.000000,1280.000000) scale(0.100000,-0.100000)"
    fill="var(--key-color)" stroke="var(--key-color)">
        <path d="M3405 11869 c-240 -26 -563 -114 -782 -213 -304 -137 -541 -302 -788
        -550 -513 -514 -785 -1175 -785 -1906 0 -429 85 -804 270 -1197 458 -972 1674
        -2233 3395 -3524 602 -451 1310 -929 1378 -929 70 0 938 594 1532 1048 1650
        1262 2769 2438 3229 3394 149 309 222 562 262 904 20 172 14 555 -10 707 -47
        290 -127 542 -250 792 -389 790 -1118 1328 -1976 1460 -149 23 -439 30 -595
        16 -588 -55 -1130 -287 -1660 -709 -66 -53 -214 -189 -329 -303 l-208 -207
        -63 66 c-34 37 -74 81 -88 97 -41 50 -294 278 -410 369 -468 371 -959 592
        -1489 672 -125 19 -507 27 -633 13z"/>
    </g>
</svg>
